<svg xmlns="http://www.w3.org/2000/svg" viewBox="0 0 455.4 99.35"><defs><style>.cls-1{fill:#c12f39;}.cls-2{fill:#ebc22e;}</style></defs><g id="Capa_2" data-name="Capa 2"><g id="Layer_1" data-name="Layer 1"><path class="cls-1" d="M0,.2,21,.4l.1,72.5S10.4,82.9,9.3,83.5s-5.4,3.3-7.4-.1S.3,75.8.3,73.7,0,.2,0,.2Z"/><path class="cls-1" d="M28.4,55.7l27.8.2.1,27.4-6.6-6.5s-18.2,18.5-20,20c-2.7,2.1-11.3,3.8-14.2,1.1C13.9,96.1,4,86.7,4,86.7s4.2-.2,5.4-.8S35.2,62.5,35.2,62.5Z"/><path class="cls-2" d="M96.8,0l20.6.2s.4,77.3.4,79-.9,4.6-2.4,5.2-3.1,1.6-7-1.5S96.9,73,96.9,73Z"/><path class="cls-2" d="M83,62.5,89.6,56l-28.1-.3V83.4l6.7-6.7S85.8,94.3,87.1,95.3c4.4,3.4,12.1,5.8,15.8,2.4,1.6-1.5,10.7-10.8,10.7-10.8a6.43,6.43,0,0,1-3.2-.3C108.1,86.1,83,62.5,83,62.5Z"/><polygon points="24.7 0.8 29.7 0.7 31 17 33.6 0.7 38.9 0.8 40.4 17.7 42.6 0.8 47 0.8 43.9 23.6 38.3 23.6 35.7 6.8 33.5 23.6 28 23.6 24.7 0.8"/><path d="M50.3,22.6a5.49,5.49,0,0,1-1.7-4.3V6.2a5.64,5.64,0,0,1,1.7-4.3A6.9,6.9,0,0,1,55.1.4a6.9,6.9,0,0,1,4.8,1.5,5.49,5.49,0,0,1,1.7,4.3V18.3a5.64,5.64,0,0,1-1.7,4.3,6.9,6.9,0,0,1-4.8,1.5A7.08,7.08,0,0,1,50.3,22.6Zm7.1-4.1V5.9c0-1.5-.7-2.3-2.2-2.3S53,4.4,53,5.9V18.5c0,1.5.7,2.3,2.2,2.3S57.4,20,57.4,18.5Z"/><path d="M45.1,49.6a5.42,5.42,0,0,1-1.7-4.2V33.5a5.42,5.42,0,0,1,1.7-4.2,6.9,6.9,0,0,1,4.8-1.5,6.9,6.9,0,0,1,4.8,1.5,5.42,5.42,0,0,1,1.7,4.2V45.4a5.42,5.42,0,0,1-1.7,4.2,6.9,6.9,0,0,1-4.8,1.5A6.9,6.9,0,0,1,45.1,49.6Zm7-4V33.2A1.92,1.92,0,0,0,49.9,31a1.92,1.92,0,0,0-2.2,2.2V45.6a1.92,1.92,0,0,0,2.2,2.2C51.3,47.9,52.1,47.1,52.1,45.6Z"/><path d="M27.1,50a5.44,5.44,0,0,1-1.6-4.3V33.1a5.58,5.58,0,0,1,1.6-4.3,6.63,6.63,0,0,1,4.7-1.5,6.63,6.63,0,0,1,4.7,1.5,5.44,5.44,0,0,1,1.6,4.3v2.5H34V32.9c0-1.5-.7-2.2-2.1-2.2s-2.1.7-2.1,2.2V46.1a1.93,1.93,0,0,0,2.1,2.2c1.4,0,2.1-.7,2.1-2.2V42.5h4.1v3.3a5.58,5.58,0,0,1-1.6,4.3,6.63,6.63,0,0,1-4.7,1.5A7,7,0,0,1,27.1,50Z"/><path d="M79.5,27.9h6.4a7.53,7.53,0,0,1,4.9,1.4,5.36,5.36,0,0,1,1.6,4.2v2.2a5.36,5.36,0,0,1-1.6,4.2c-1.1,1-2.7,1.4-4.9,1.4H83.8v9.3H79.4V27.9Zm6.4,10.2a2.54,2.54,0,0,0,1.6-.5c.4-.3.5-.9.5-1.7V33.2a2.65,2.65,0,0,0-.5-1.7,2.54,2.54,0,0,0-1.6-.5H83.8v7h2.1Z"/><path d="M63.9.6h6.8c2.4,0,4.1.4,5.2,1.3a4.8,4.8,0,0,1,1.6,4V7.3q0,3.6-3,4.5v.1a3.36,3.36,0,0,1,2.3,1.6,6.23,6.23,0,0,1,.7,3.3v4a7.12,7.12,0,0,0,.1,1.6,5.64,5.64,0,0,0,.4,1.2H73.3a2.28,2.28,0,0,1-.3-1.1,7.67,7.67,0,0,1-.1-1.8V16.5a3,3,0,0,0-.6-2.2,3.22,3.22,0,0,0-2.2-.6H68.5v10H63.9Zm6.2,9.9a3.28,3.28,0,0,0,2.1-.6A2.23,2.23,0,0,0,72.9,8V6.2a2.44,2.44,0,0,0-.6-1.8,2.44,2.44,0,0,0-1.8-.6H68.4v6.6h1.7Z"/><path d="M60.9,27.5h6.8c2.4,0,4.1.4,5.2,1.3a4.8,4.8,0,0,1,1.6,4v1.4q0,3.6-3,4.5v.1a3.36,3.36,0,0,1,2.3,1.6,6.23,6.23,0,0,1,.7,3.3v4a7.12,7.12,0,0,0,.1,1.6,5.64,5.64,0,0,0,.4,1.2H70.3a2.28,2.28,0,0,1-.3-1.1,7.67,7.67,0,0,1-.1-1.8V43.4a3,3,0,0,0-.6-2.2,3.22,3.22,0,0,0-2.2-.6H65.5v9.9H60.9Zm6.3,9.9a3.28,3.28,0,0,0,2.1-.6,2.23,2.23,0,0,0,.7-1.9V33.1a2.12,2.12,0,0,0-2.4-2.4H65.5v6.6h1.7Z"/><path d="M79.4.7h4.3v9.6L89.1.7h4.3L88.3,9l5.2,14.4H89L85.4,13.3l-1.7,2.9v7.2H79.4Z"/><path d="M138.4,9.5a7,7,0,0,1,1.7,5V27.7a7,7,0,0,1-1.7,5c-1.1,1.2-2.8,1.7-5,1.7h-5.8V7.7h5.8A6.66,6.66,0,0,1,138.4,9.5Zm-6.8,2V30.7h1.6a2.56,2.56,0,0,0,2.1-.8,3.56,3.56,0,0,0,.7-2.5V14.7a3.73,3.73,0,0,0-.7-2.5,2.86,2.86,0,0,0-2.1-.8h-1.6Z"/><path d="M155.7,11.5h-7.3V19h5.9v3.7h-5.9v7.9h7.3v3.7H144.4V7.7h11.3Z"/><path d="M168.6,8.9a6.06,6.06,0,0,1,1.6,4.4V14l-3.9.4v-1a2.65,2.65,0,0,0-.5-1.7,1.89,1.89,0,0,0-1.5-.6,1.75,1.75,0,0,0-1.5.6,2.31,2.31,0,0,0-.5,1.7v.3a4.42,4.42,0,0,0,.7,2.4,13.49,13.49,0,0,0,2.7,2.8,16.19,16.19,0,0,1,3.9,4.3,7.89,7.89,0,0,1,1.1,4.3v1.3a5.67,5.67,0,0,1-1.6,4.4,6.57,6.57,0,0,1-4.6,1.6,6.14,6.14,0,0,1-4.6-1.6,5.82,5.82,0,0,1-1.6-4.4V27l3.9-.4v1.9c0,1.7.8,2.5,2.3,2.5s2.3-.8,2.3-2.5v-.9a4.63,4.63,0,0,0-.8-2.5,13.49,13.49,0,0,0-2.7-2.8,15.61,15.61,0,0,1-3.8-4.2,8.77,8.77,0,0,1-1.1-4.2v-.6A5.67,5.67,0,0,1,160,8.9a6.06,6.06,0,0,1,4.4-1.6A5.73,5.73,0,0,1,168.6,8.9Z"/><path d="M186.3,34.4h-4.1l-.9-6h-4.4l-.9,6h-4l4.6-26.6h5.1Zm-7.3-21-1.6,11.3h3.4l-1.6-11.2H179Z"/><path d="M198.6,34.4l-3.2-11.3h-1.9V34.4h-4V7.7h5.8a7,7,0,0,1,5,1.7,7,7,0,0,1,1.7,5v1.9c0,2.8-1,4.8-2.9,5.9l3.7,12.1h-4.2Zm-5.1-22.9v7.9h1.6a2.56,2.56,0,0,0,2.1-.8,3.56,3.56,0,0,0,.7-2.5V14.7a3.73,3.73,0,0,0-.7-2.5,2.86,2.86,0,0,0-2.1-.8h-1.6Z"/><path d="M215.2,34.4,212,23.1h-1.9V34.4h-4V7.7h5.8a7,7,0,0,1,5,1.7,7,7,0,0,1,1.7,5v1.9c0,2.8-1,4.8-2.9,5.9l3.7,12.1h-4.2Zm-5-22.9v7.9h1.6a2.56,2.56,0,0,0,2.1-.8,3.56,3.56,0,0,0,.7-2.5V14.7a3.73,3.73,0,0,0-.7-2.5,2.86,2.86,0,0,0-2.1-.8h-1.6Z"/><path d="M233.6,9.2a6.52,6.52,0,0,1,1.7,4.9V28a6.94,6.94,0,0,1-1.7,4.9,6.33,6.33,0,0,1-4.8,1.8,6.07,6.07,0,0,1-6.5-6.7V14.1A6.94,6.94,0,0,1,224,9.2a6.33,6.33,0,0,1,4.8-1.8A6.49,6.49,0,0,1,233.6,9.2Zm-6.7,2.7a3.71,3.71,0,0,0-.6,2.3V28a3.92,3.92,0,0,0,.6,2.3,2.43,2.43,0,0,0,3.6,0,3.71,3.71,0,0,0,.6-2.3V14.1a3.92,3.92,0,0,0-.6-2.3,2.2,2.2,0,0,0-1.8-.8A2.62,2.62,0,0,0,226.9,11.9Z"/><path d="M243.6,30.6h6.7v3.8H239.5V7.7h4V30.6Z"/><path d="M257.3,30.6H264v3.8H253.2V7.7h4V30.6Z"/><path d="M277.7,9.2a6.52,6.52,0,0,1,1.7,4.9V28a6.94,6.94,0,0,1-1.7,4.9,6.33,6.33,0,0,1-4.8,1.8,6.07,6.07,0,0,1-6.5-6.7V14.1a6.94,6.94,0,0,1,1.7-4.9,6.33,6.33,0,0,1,4.8-1.8A6.19,6.19,0,0,1,277.7,9.2Zm-6.6,2.7a3.71,3.71,0,0,0-.6,2.3V28a3.92,3.92,0,0,0,.6,2.3,2.42,2.42,0,0,0,3.6,0,3.71,3.71,0,0,0,.6-2.3V14.1a3.92,3.92,0,0,0-.6-2.3,2.2,2.2,0,0,0-1.8-.8A2.27,2.27,0,0,0,271.1,11.9Z"/><path d="M302,9.5a7,7,0,0,1,1.7,5V27.7a7,7,0,0,1-1.7,5c-1.1,1.2-2.8,1.7-5,1.7h-5.8V7.7H297A6.51,6.51,0,0,1,302,9.5Zm-6.7,2V30.7h1.6a2.56,2.56,0,0,0,2.1-.8,3.56,3.56,0,0,0,.7-2.5V14.7a3.73,3.73,0,0,0-.7-2.5,2.86,2.86,0,0,0-2.1-.8h-1.6Z"/><path d="M319.3,11.5H312V19h5.9v3.7H312v7.9h7.3v3.7H308V7.7h11.3Z"/><path d="M339.5,8.9a6.06,6.06,0,0,1,1.6,4.4V14l-3.9.4v-1a2.65,2.65,0,0,0-.5-1.7,1.89,1.89,0,0,0-1.5-.6,1.75,1.75,0,0,0-1.5.6,2.31,2.31,0,0,0-.5,1.7v.3a4.42,4.42,0,0,0,.7,2.4,13.49,13.49,0,0,0,2.7,2.8,16.19,16.19,0,0,1,3.9,4.3,7.89,7.89,0,0,1,1.1,4.3v1.3a5.67,5.67,0,0,1-1.6,4.4,6.57,6.57,0,0,1-4.6,1.6,6.14,6.14,0,0,1-4.6-1.6,5.94,5.94,0,0,1-1.8-4.4V27l3.9-.4v1.9c0,1.7.8,2.5,2.3,2.5s2.3-.8,2.3-2.5v-.9a4.63,4.63,0,0,0-.8-2.5,13.49,13.49,0,0,0-2.7-2.8,15.61,15.61,0,0,1-3.8-4.2,8.77,8.77,0,0,1-1.1-4.2v-.6a5.67,5.67,0,0,1,1.6-4.4,6.06,6.06,0,0,1,4.4-1.6A6.23,6.23,0,0,1,339.5,8.9Z"/><path d="M355.3,9.2a6.52,6.52,0,0,1,1.7,4.9V28a6.94,6.94,0,0,1-1.7,4.9,6.33,6.33,0,0,1-4.8,1.8A6.07,6.07,0,0,1,344,28V14.1a6.94,6.94,0,0,1,1.7-4.9,6.33,6.33,0,0,1,4.8-1.8A6.49,6.49,0,0,1,355.3,9.2Zm-6.7,2.7a3.71,3.71,0,0,0-.6,2.3V28a3.92,3.92,0,0,0,.6,2.3,2.42,2.42,0,0,0,3.6,0,3.71,3.71,0,0,0,.6-2.3V14.1a3.92,3.92,0,0,0-.6-2.3,2.2,2.2,0,0,0-1.8-.8A2.62,2.62,0,0,0,348.6,11.9Z"/><path d="M372.4,11.5h-7.1V19H371v3.7h-5.7V34.3h-4V7.7h11.1Z"/><path d="M386.4,11.5h-4.3V34.3h-4V11.5h-4.3V7.7h12.6v3.8Z"/><path d="M404.9,34.4h-4.1l-2.3-15.9h-.1l-2.3,15.9H392L387.9,7.7H392l2.3,17.6h.1l2.3-17.6h3.6l2.3,17.6h.1L405,7.7h4Z"/><path d="M424.2,34.4h-4.1l-.9-6h-4.4l-.9,6h-4l4.6-26.6h5.1Zm-7.2-21-1.7,11.3h3.4l-1.6-11.2H417Z"/><path d="M436.5,34.4l-3.2-11.3h-1.9V34.4h-4V7.7h5.8a7,7,0,0,1,5,1.7,7,7,0,0,1,1.7,5v1.9c0,2.8-1,4.8-2.9,5.9l3.7,12.1h-4.2Zm-5-22.9v7.9h1.6a2.56,2.56,0,0,0,2.1-.8,3.56,3.56,0,0,0,.7-2.5V14.7a3.73,3.73,0,0,0-.7-2.5,2.86,2.86,0,0,0-2.1-.8h-1.6Z"/><path d="M455.4,11.5h-7.3V19H454v3.7h-5.9v7.9h7.3v3.7H444.1V7.7h11.3Z"/><path d="M137.3,49.9a5.77,5.77,0,0,1,1.5,4.3v.2a6.65,6.65,0,0,1-.9,3.4,26.34,26.34,0,0,1-3.2,3.9l2.7,4.3h.1V62.1l3.5.2v4.4a11.24,11.24,0,0,1-.6,4l3.3,4.9h-4.8l-.8-1.2a6.14,6.14,0,0,1-4.6,1.6,6.52,6.52,0,0,1-4.8-1.7,6.19,6.19,0,0,1-1.8-4.8v-1a8.42,8.42,0,0,1,.7-3.5,10.74,10.74,0,0,1,2.3-3.4,26.57,26.57,0,0,1-1.9-3.8,11.15,11.15,0,0,1-.5-3.1v-.2a6.45,6.45,0,0,1,1.4-4.4,5.68,5.68,0,0,1,4.2-1.5A4.9,4.9,0,0,1,137.3,49.9ZM132,64.7a12.63,12.63,0,0,0-.8,1.8,4.68,4.68,0,0,0-.2,1.7v.6a3.29,3.29,0,0,0,.7,2.4,2.79,2.79,0,0,0,2,.8,3.1,3.1,0,0,0,2.4-1L132,64.7Zm-.2-12a2.65,2.65,0,0,0-.5,1.7v.2a5.55,5.55,0,0,0,.3,1.7,13.33,13.33,0,0,0,1,2.3h.1a12.24,12.24,0,0,0,1.8-2.3,4.07,4.07,0,0,0,.5-1.8v-.2a2.54,2.54,0,0,0-.5-1.6,1.68,1.68,0,0,0-1.4-.6A1.61,1.61,0,0,0,131.8,52.7Z"/><path d="M161.8,49.9a6.06,6.06,0,0,1,1.6,4.4V55l-3.9.4v-1a2.65,2.65,0,0,0-.5-1.7,1.89,1.89,0,0,0-1.5-.6,1.75,1.75,0,0,0-1.5.6,2.31,2.31,0,0,0-.5,1.7v.3a4.42,4.42,0,0,0,.7,2.4,13.49,13.49,0,0,0,2.7,2.8,16.19,16.19,0,0,1,3.9,4.3,7.89,7.89,0,0,1,1.1,4.3v1.3a5.67,5.67,0,0,1-1.6,4.4,6.57,6.57,0,0,1-4.6,1.6,6.14,6.14,0,0,1-4.6-1.6,5.82,5.82,0,0,1-1.6-4.4V68l3.9-.4v1.9c0,1.7.8,2.5,2.3,2.5s2.3-.8,2.3-2.5v-.9a4.63,4.63,0,0,0-.8-2.5,13.49,13.49,0,0,0-2.7-2.8,15.61,15.61,0,0,1-3.8-4.2,8.77,8.77,0,0,1-1.1-4.2v-.6a5.67,5.67,0,0,1,1.6-4.4,6.06,6.06,0,0,1,4.4-1.6A5.57,5.57,0,0,1,161.8,49.9Z"/><path d="M177.6,52.5h-7.3V60h5.9v3.7h-5.9v7.9h7.3v3.7H166.3V48.7h11.3Z"/><path d="M190.1,75.4l-3.2-11.3H185V75.4h-4V48.7h5.8a7,7,0,0,1,5,1.7,7,7,0,0,1,1.7,5v1.9c0,2.8-1,4.8-2.9,5.9l3.7,12.1h-4.2Zm-5-22.9v7.9h1.6a2.56,2.56,0,0,0,2.1-.8,3.56,3.56,0,0,0,.7-2.5V55.7a3.73,3.73,0,0,0-.7-2.5,2.86,2.86,0,0,0-2.1-.8h-1.6Z"/><path d="M205.2,75.4H200l-4.5-26.6h4.1l3,20.3h.1l3-20.3h4Z"/><path d="M216.6,75.4h-4V48.7h4Z"/><path d="M231.3,50a6.43,6.43,0,0,1,1.7,4.7v2.4l-3.9.2V55.1c0-2.1-.8-3.1-2.3-3.1a2.06,2.06,0,0,0-1.7.7,3,3,0,0,0-.6,2V69.2a2.81,2.81,0,0,0,.6,2,2.06,2.06,0,0,0,1.7.7c1.5,0,2.3-1,2.3-3.1v-3l3.9.2v3.2a6.43,6.43,0,0,1-1.7,4.7,7.07,7.07,0,0,1-9.2,0,6.39,6.39,0,0,1-1.6-4.7V54.7a6.39,6.39,0,0,1,1.6-4.7,6.19,6.19,0,0,1,4.6-1.7A6.61,6.61,0,0,1,231.3,50Z"/><path d="M240.4,75.4h-4V48.7h4Z"/><path d="M255.6,50.2a6.52,6.52,0,0,1,1.7,4.9V69a6.94,6.94,0,0,1-1.7,4.9,6.33,6.33,0,0,1-4.8,1.8,6.07,6.07,0,0,1-6.5-6.7V55.1a6.94,6.94,0,0,1,1.7-4.9,6.33,6.33,0,0,1,4.8-1.8A6.19,6.19,0,0,1,255.6,50.2ZM249,52.9a3.71,3.71,0,0,0-.6,2.3V69a3.92,3.92,0,0,0,.6,2.3,2.42,2.42,0,0,0,3.6,0,3.71,3.71,0,0,0,.6-2.3V55.2a3.92,3.92,0,0,0-.6-2.3,2.2,2.2,0,0,0-1.8-.8A2,2,0,0,0,249,52.9Z"/><path d="M270.6,49.9a6.06,6.06,0,0,1,1.6,4.4V55l-3.9.4v-1a2.65,2.65,0,0,0-.5-1.7,1.89,1.89,0,0,0-1.5-.6,1.75,1.75,0,0,0-1.5.6,2.31,2.31,0,0,0-.5,1.7v.3a4.42,4.42,0,0,0,.7,2.4,13.49,13.49,0,0,0,2.7,2.8,16.19,16.19,0,0,1,3.9,4.3,7.89,7.89,0,0,1,1.1,4.3v1.3a5.67,5.67,0,0,1-1.6,4.4,6.57,6.57,0,0,1-4.6,1.6,6.14,6.14,0,0,1-4.6-1.6,5.82,5.82,0,0,1-1.6-4.4V68l3.9-.4v1.9c0,1.7.8,2.5,2.3,2.5s2.3-.8,2.3-2.5v-.9a4.63,4.63,0,0,0-.8-2.5,13.49,13.49,0,0,0-2.7-2.8,15.61,15.61,0,0,1-3.8-4.2,8.77,8.77,0,0,1-1.1-4.2v-.6a5.67,5.67,0,0,1,1.6-4.4,6.06,6.06,0,0,1,4.4-1.6A5.73,5.73,0,0,1,270.6,49.9Z"/><path d="M285.9,75.4h-4V48.7h4Z"/><path d="M303.4,75.4h-4l-5.3-17.6H294V75.4h-3.8V48.7h4.5l4.8,15.9h.1V48.7h3.8Z"/><path d="M318.8,52.5h-7.1V60h5.7v3.7h-5.7V75.3h-4V48.7h11.1Z"/><path d="M332.2,50.2a6.52,6.52,0,0,1,1.7,4.9V69a6.94,6.94,0,0,1-1.7,4.9,6.33,6.33,0,0,1-4.8,1.8,6.07,6.07,0,0,1-6.5-6.7V55.1a6.94,6.94,0,0,1,1.7-4.9,6.33,6.33,0,0,1,4.8-1.8A6.19,6.19,0,0,1,332.2,50.2Zm-6.6,2.7a3.71,3.71,0,0,0-.6,2.3V69a3.92,3.92,0,0,0,.6,2.3,2.43,2.43,0,0,0,3.6,0,3.71,3.71,0,0,0,.6-2.3V55.2a3.92,3.92,0,0,0-.6-2.3,2.2,2.2,0,0,0-1.8-.8A2.06,2.06,0,0,0,325.6,52.9Z"/><path d="M347,75.4l-3.2-11.3h-1.9V75.4h-4V48.7h5.8a7,7,0,0,1,5,1.7,7,7,0,0,1,1.7,5v1.9c0,2.8-1,4.8-2.9,5.9l3.7,12.1H347Zm-5.1-22.9v7.9h1.6a2.56,2.56,0,0,0,2.1-.8,3.56,3.56,0,0,0,.7-2.5V55.7a3.73,3.73,0,0,0-.7-2.5,2.86,2.86,0,0,0-2.1-.8h-1.6Z"/><path d="M371.2,75.4h-4V56.9h-.1l-3.3,14.7h-2.4l-3.3-14.7H358V75.4h-3.8V48.7h5.3L362.7,63h.1l3.1-14.3h5.4V75.4Z"/><path d="M388.5,75.4h-4.1l-.9-6H379l-.9,6h-4l4.6-26.6h5.1Zm-6.2-28.2h-3l2.2-4.2h4.1Zm-1.1,7.2-1.6,11.2H383l-1.6-11.2Z"/><path d="M400.9,52.5h-4.3V75.3h-4V52.5h-4.3V48.7h12.6v3.8Z"/><path d="M407.5,75.4h-4V48.7h4Z"/><path d="M422.3,50a6.43,6.43,0,0,1,1.7,4.7v2.4l-3.9.2V55.1c0-2.1-.8-3.1-2.3-3.1a2.06,2.06,0,0,0-1.7.7,3,3,0,0,0-.6,2V69.2a2.81,2.81,0,0,0,.6,2,2.06,2.06,0,0,0,1.7.7c1.5,0,2.3-1,2.3-3.1v-3l3.9.2v3.2a6.43,6.43,0,0,1-1.7,4.7,7.07,7.07,0,0,1-9.2,0,6.39,6.39,0,0,1-1.6-4.7V54.7a6.39,6.39,0,0,1,1.6-4.7,6.19,6.19,0,0,1,4.6-1.7A6.8,6.8,0,0,1,422.3,50Z"/><path d="M438.3,50.2a6.52,6.52,0,0,1,1.7,4.9V69a6.94,6.94,0,0,1-1.7,4.9,6.33,6.33,0,0,1-4.8,1.8A6.07,6.07,0,0,1,427,69V55.1a6.94,6.94,0,0,1,1.7-4.9,6.33,6.33,0,0,1,4.8-1.8A6.49,6.49,0,0,1,438.3,50.2Zm-6.6,2.7a3.71,3.71,0,0,0-.6,2.3V69a3.92,3.92,0,0,0,.6,2.3,2.43,2.43,0,0,0,3.6,0,3.71,3.71,0,0,0,.6-2.3V55.2a3.92,3.92,0,0,0-.6-2.3,2.2,2.2,0,0,0-1.8-.8A2,2,0,0,0,431.7,52.9Z"/><path d="M453.2,49.9a6.06,6.06,0,0,1,1.6,4.4V55l-3.9.4v-1a2.65,2.65,0,0,0-.5-1.7,1.89,1.89,0,0,0-1.5-.6,1.75,1.75,0,0,0-1.5.6,2.31,2.31,0,0,0-.5,1.7v.3a4.42,4.42,0,0,0,.7,2.4,13.49,13.49,0,0,0,2.7,2.8,16.19,16.19,0,0,1,3.9,4.3,7.89,7.89,0,0,1,1.1,4.3v1.3a5.67,5.67,0,0,1-1.6,4.4,6.57,6.57,0,0,1-4.6,1.6,6.14,6.14,0,0,1-4.6-1.6,5.82,5.82,0,0,1-1.6-4.4V68l3.9-.4v1.9c0,1.7.8,2.5,2.3,2.5s2.3-.8,2.3-2.5v-.9a4.63,4.63,0,0,0-.8-2.5,13.49,13.49,0,0,0-2.7-2.8,15.61,15.61,0,0,1-3.8-4.2,8.77,8.77,0,0,1-1.1-4.2v-.6a5.67,5.67,0,0,1,1.6-4.4,6.06,6.06,0,0,1,4.4-1.6A5.57,5.57,0,0,1,453.2,49.9Z"/></g></g></svg>